<?xml version="1.0" encoding="UTF-8" standalone="no"?>
<!DOCTYPE svg PUBLIC "-//W3C//DTD SVG 1.1//EN" "http://www.w3.org/Graphics/SVG/1.1/DTD/svg11.dtd">
<svg width="100%" height="100%" viewBox="0 0 753 753" version="1.1" xmlns="http://www.w3.org/2000/svg" xmlns:xlink="http://www.w3.org/1999/xlink" xml:space="preserve" xmlns:serif="http://www.serif.com/" style="fill-rule:evenodd;clip-rule:evenodd;stroke-linejoin:round;stroke-miterlimit:2;">
    <g transform="matrix(1.18357,0,0,1.18357,-69.1159,-69.1159)">
        <path d="M376.5,66C547.87,66 687,205.13 687,376.5C687,547.87 547.87,687 376.5,687C205.13,687 66,547.87 66,376.5C66,205.13 205.13,66 376.5,66ZM376.5,90.84C534.16,90.84 662.16,218.84 662.16,376.5C662.16,534.16 534.16,662.16 376.5,662.16C218.84,662.16 90.84,534.16 90.84,376.5C90.84,218.84 218.84,90.84 376.5,90.84Z" style="fill:rgb(139,197,63);"/>
    </g>
    <g transform="matrix(1.18357,0,0,1.18357,-79.1394,-69.6976)">
        <path d="M389.698,107.548C407.98,104.284 426.697,104.284 444.979,107.548C463.437,110.473 481.278,116.453 497.77,125.243C514.155,134.255 528.344,146.478 542.434,158.012C556.525,169.547 570.583,181.213 583.953,194.058C597.585,206.688 609.486,221.068 619.343,236.822C629.507,252.47 637.831,269.238 644.149,286.795C656.443,321.86 659.942,359.412 654.341,396.145L652.506,396.145C647.108,361.05 638.081,326.611 625.569,293.381C619.573,276.948 612.513,260.923 604.433,245.407C595.942,229.937 586.6,214.949 576.449,200.514C566.094,185.903 553.406,173.094 538.895,162.6C524.313,152.212 507.535,145.462 491.282,139.072C475.028,132.682 458.775,126.325 441.899,121.442C425.023,116.56 407.753,112.922 389.763,109.383L389.698,107.548Z" style="fill:rgb(139,197,63);fill-rule:nonzero;"/>
    </g>
    <g transform="matrix(1.18357,0,0,1.18357,-79.1394,-69.6976)">
        <path d="M385.471,222.993C399.954,224.042 452.352,241.147 465.853,250.323C454.679,217.554 416.699,213.294 385.471,222.993Z" style="fill:rgb(139,197,63);fill-rule:nonzero;"/>
    </g>
    <g transform="matrix(1.18357,0,0,1.18357,-79.1394,-69.6976)">
        <path d="M530.277,273.589C509.403,267.527 487.677,258.974 465.853,250.323C464.608,244.818 459.725,237.969 449.894,229.613C435.574,217.193 408.704,217.521 385.471,223.059C359.845,217.029 334.515,214.899 310.102,220.732C111.357,275.457 224.083,409.253 151.074,543.606C161.461,565.627 273.433,694.343 435.443,659.707C435.443,659.707 380.064,526.566 505.078,462.666C606.498,410.662 679.802,314.386 530.277,273.589ZM598.109,387.723C583.754,400.069 567.738,410.338 550.528,418.231C533.374,426.382 515.491,432.899 497.115,437.696C478.764,442.448 459.561,446.02 440.129,444.25C420.697,442.48 400.806,435.861 387.994,421.312L388.616,420.591C404.477,430.847 422.598,434.452 440.686,434.976C459.052,435.51 477.419,433.982 495.443,430.421C513.653,426.626 531.469,421.141 548.66,414.037C566.129,407.366 582.576,398.277 597.519,387.035L598.109,387.723ZM554.821,361.115C554.821,361.148 554.821,361.18 554.821,361.213C554.821,367.829 549.378,373.272 542.762,373.272C536.147,373.272 530.703,367.829 530.703,361.213C530.703,354.61 536.126,349.172 542.729,349.154C542.751,349.154 542.773,349.154 542.795,349.154C549.368,349.154 554.785,354.542 554.821,361.115ZM399.266,305.637C399.266,336.197 374.119,361.344 343.559,361.344C312.999,361.344 287.852,336.197 287.852,305.637C287.852,275.077 312.999,249.93 343.559,249.93C374.119,249.93 399.266,275.077 399.266,305.637Z" style="fill:rgb(139,197,63);fill-rule:nonzero;"/>
    </g>
    <g transform="matrix(1.18357,0,0,1.18357,-79.1394,-69.6976)">
        <path d="M382.783,306.128C382.783,306.139 382.783,306.15 382.783,306.161C382.783,327.625 365.121,345.287 343.657,345.287C322.193,345.287 304.531,327.625 304.531,306.161C304.531,284.697 322.193,267.035 343.657,267.035C365.102,267.053 382.748,284.684 382.783,306.128Z" style="fill:rgb(139,197,63);fill-rule:nonzero;"/>
    </g>
    <g transform="matrix(1.18357,0,0,1.18357,-79.1394,-69.6976)">
        <path d="M599.878,385.626C554.821,417.379 515.57,478.334 442.888,478.334C408.874,478.334 389.993,405.288 367.513,422.917C355.88,432.06 315.083,452.41 282.477,450.968C249.872,449.526 197.278,430.356 182.696,361.049C176.896,430.356 173.914,481.41 147.895,539.936C199.736,622.94 323.308,686.938 435.443,659.412C423.417,575.261 496.951,492.814 538.404,450.64C554.067,434.681 584.28,408.597 599.878,385.495L599.878,385.626Z" style="fill:rgb(139,197,63);fill-rule:nonzero;"/>
    </g>
</svg>
