<?xml version="1.0" encoding="UTF-8" standalone="no"?>
<!DOCTYPE svg PUBLIC "-//W3C//DTD SVG 1.1//EN" "http://www.w3.org/Graphics/SVG/1.1/DTD/svg11.dtd">
<svg width="100%" height="100%" viewBox="0 0 512 512" version="1.1" xmlns="http://www.w3.org/2000/svg" xmlns:xlink="http://www.w3.org/1999/xlink" xml:space="preserve" xmlns:serif="http://www.serif.com/" style="fill-rule:evenodd;clip-rule:evenodd;stroke-linejoin:round;stroke-miterlimit:2;">
    <g transform="matrix(1.10134,0,0,1.10134,-25.982,-25.9184)">
        <path d="M389.11,109.985C402.757,135.334 408.655,159.968 409.752,172.503C412.567,204.67 409.752,187.749 409.752,256.503C409.752,325.258 445.752,400.503 445.752,400.503L394.752,359.503L356.752,417.503L318.752,383.503L256.752,482.503C256.752,482.503 256.585,482.116 256.27,481.364C256.093,481.785 256,482 256,482L194,383L156,417L118,359L67,400C67,400 103,324.755 103,256C103,187.245 100.185,204.167 103,172C104.088,159.564 109.902,135.222 123.312,110.097C129.111,120.882 141.017,136.485 149,143C113.147,212.889 185.886,220.985 198,222C194.047,225.23 195,244 195,244L147,272C147,272 185.683,292.492 203,309C225.808,337.771 256,452 256,452L256.181,450.65L256.362,452C256.362,452 286.554,337.771 309.362,309C326.679,292.492 365.362,272 365.362,272L317.362,244C317.362,244 318.314,225.23 314.362,222C326.476,220.985 399.215,212.889 363.362,143C371.373,136.462 383.334,120.772 389.11,109.985ZM378.217,93.921C367.844,108.186 341.821,136.561 282.164,170.544C278.433,168.523 274.981,166.907 271.751,165.658C266.737,163.41 261.73,162.161 256.181,162.267C250.633,162.161 245.626,163.41 240.611,165.658C237.383,166.906 233.931,168.523 230.198,170.544C176.215,139.793 149.773,113.634 137.542,98.363L137.541,98.363C137.541,98.363 108.885,65.857 109,50C119.079,68.699 133.712,74.02 147.397,75.477C171.057,49.257 205.916,28.567 256,29L256.551,29.793L256.752,29.503C306.497,29.074 341.223,49.482 364.873,75.448C378.481,73.952 392.993,68.58 403.008,50C403.097,62.261 385.985,84.475 378.217,93.921Z" style="fill:black;"/>
    </g>
    <g transform="matrix(1.10134,0,0,1.10134,-25.982,-25.9184)">
        <path d="M297,190C297,190 333.9,172.137 344,159C352.439,171.84 343.556,212.069 297,190Z" style="fill:black;"/>
    </g>
    <g transform="matrix(-1.10134,0,0,1.10134,538.83,-25.9184)">
        <path d="M297,190C297,190 333.9,172.137 344,159C352.439,171.84 343.556,212.069 297,190Z" style="fill:black;"/>
    </g>
    <g transform="matrix(1.10134,0,0,1.10134,-25.982,-25.9184)">
        <path d="M256.675,186.001C256.757,186 256.844,186 256.931,186C293.122,186 292.884,247.148 293.35,252C293.816,256.852 292.478,258.257 297.511,261C305.52,265.517 303.74,263.845 316.35,273C276.776,291.512 256.974,370 256.974,370L256.675,367.466L256.376,370C256.376,370 236.575,291.512 197,273C209.61,263.845 207.831,265.517 215.839,261C220.873,258.257 219.534,256.852 220,252C220.466,247.148 220.228,186 256.419,186C256.506,186 256.593,186 256.675,186.001Z" style="fill:black;"/>
    </g>
</svg>
